<svg width="34" height="34" viewBox="0 0 34 34" fill="none" xmlns="http://www.w3.org/2000/svg">
<g id="Group 1810">
<circle id="Ellipse 5" cx="17" cy="17" r="16" fill="#7030A0" stroke="white" stroke-width="2"/>
<path id="Vector" d="M23.8539 12.5767L17.7888 9.14863C17.6152 9.05118 17.4194 9 17.2204 9C17.0213 9 16.8255 9.05118 16.6519 9.14863L10.5868 12.5767C10.4088 12.6775 10.2608 12.8237 10.1577 13.0004C10.0546 13.177 10.0002 13.3779 10 13.5824V20.4175C10.0002 20.6221 10.0546 20.8229 10.1577 20.9996C10.2608 21.1763 10.4088 21.3224 10.5868 21.4233L16.6519 24.8513C16.8255 24.9488 17.0213 25 17.2204 25C17.4195 25 17.6152 24.9488 17.7888 24.8513L23.8539 21.4233C24.0319 21.3224 24.1799 21.1763 24.283 20.9996C24.3861 20.8229 24.4405 20.6221 24.4407 20.4175V13.5824C24.4405 13.3779 24.3861 13.177 24.283 13.0004C24.1799 12.8237 24.0319 12.6775 23.8539 12.5767ZM17.2203 19.5993C16.7063 19.5993 16.2037 19.4469 15.7762 19.1612C15.3488 18.8756 15.0156 18.4697 14.8189 17.9947C14.6221 17.5197 14.5707 16.9971 14.671 16.4929C14.7713 15.9887 15.0188 15.5255 15.3823 15.162C15.7459 14.7985 16.209 14.5509 16.7132 14.4506C17.2175 14.3503 17.7401 14.4018 18.2151 14.5985C18.69 14.7953 19.096 15.1284 19.3816 15.5559C19.6672 15.9833 19.8197 16.4859 19.8197 17C19.8189 17.6891 19.5448 18.3498 19.0575 18.8371C18.5702 19.3244 17.9095 19.5985 17.2203 19.5993Z" fill="white"/>
</g>
</svg>
