<svg width="20" height="20" viewBox="0 0 20 20" fill="none" xmlns="http://www.w3.org/2000/svg">
<g id="Users">
<path id="Vector (Stroke)" fill-rule="evenodd" clip-rule="evenodd" d="M6.875 5C4.97652 5 3.4375 6.53902 3.4375 8.4375C3.4375 10.336 4.97652 11.875 6.875 11.875C8.77348 11.875 10.3125 10.336 10.3125 8.4375C10.3125 6.53902 8.77348 5 6.875 5ZM2.1875 8.4375C2.1875 5.84867 4.28616 3.75 6.875 3.75C9.46383 3.75 11.5625 5.84867 11.5625 8.4375C11.5625 11.0263 9.46383 13.125 6.875 13.125C4.28616 13.125 2.1875 11.0263 2.1875 8.4375Z" fill="black"/>
<path id="Vector (Stroke)_2" fill-rule="evenodd" clip-rule="evenodd" d="M13.7655 5.03886C13.2799 4.9643 12.7841 4.99465 12.3113 5.12786C11.979 5.22147 11.6338 5.02802 11.5402 4.69578C11.4466 4.36353 11.64 4.01831 11.9723 3.9247C12.617 3.74305 13.2931 3.70167 13.9552 3.80335C14.6173 3.90502 15.2498 4.14739 15.8104 4.51413C16.3709 4.88087 16.8463 5.36346 17.2045 5.92941C17.5628 6.49535 17.7957 7.1315 17.8874 7.79501C17.9791 8.45852 17.9276 9.13399 17.7363 9.77591C17.545 10.4178 17.2183 11.0113 16.7784 11.5163C16.3384 12.0214 15.7953 12.4263 15.1856 12.7038C14.576 12.9813 13.914 13.1249 13.2441 13.125C12.899 13.125 12.6191 12.8452 12.6191 12.5C12.619 12.1548 12.8988 11.875 13.244 11.875C13.7352 11.8749 14.2207 11.7696 14.6678 11.5661C15.1149 11.3626 15.5132 11.0657 15.8359 10.6953C16.1585 10.3249 16.3981 9.88966 16.5384 9.4189C16.6787 8.94814 16.7164 8.45278 16.6492 7.96619C16.5819 7.4796 16.4111 7.01307 16.1484 6.59803C15.8856 6.18299 15.537 5.82907 15.126 5.56012C14.7149 5.29117 14.251 5.11343 13.7655 5.03886Z" fill="black"/>
<path id="Vector (Stroke)_3" fill-rule="evenodd" clip-rule="evenodd" d="M6.87465 13.125C5.87172 13.125 4.88351 13.3664 3.99346 13.8287C3.10342 14.291 2.33767 14.9606 1.76086 15.7811C1.56234 16.0634 1.17249 16.1314 0.890113 15.9329C0.607734 15.7344 0.539753 15.3445 0.738272 15.0622C1.43042 14.0776 2.34929 13.2741 3.4173 12.7194C4.48532 12.1647 5.67112 11.875 6.87461 11.875C8.07809 11.875 9.26391 12.1645 10.332 12.7191C11.4 13.2737 12.319 14.0772 13.0112 15.0617C13.2097 15.3441 13.1418 15.7339 12.8594 15.9325C12.577 16.131 12.1872 16.063 11.9887 15.7807C11.4118 14.9603 10.646 14.2907 9.7559 13.8284C8.86582 13.3662 7.87759 13.125 6.87465 13.125Z" fill="black"/>
<path id="Vector (Stroke)_4" fill-rule="evenodd" clip-rule="evenodd" d="M16.1258 13.8274C15.2358 13.3652 14.2475 13.1243 13.2446 13.125C12.8994 13.1253 12.6194 12.8456 12.6191 12.5005C12.6189 12.1553 12.8985 11.8753 13.2437 11.875C14.4474 11.8741 15.6336 12.1633 16.7019 12.7181C17.7702 13.2729 18.689 14.0769 19.3807 15.0621C19.579 15.3446 19.5108 15.7344 19.2283 15.9327C18.9458 16.1311 18.556 16.0628 18.3576 15.7803C17.7814 14.9595 17.0158 14.2896 16.1258 13.8274Z" fill="black"/>
</g>
</svg>
