<svg width="167" height="155" viewBox="0 0 167 155" fill="none" xmlns="http://www.w3.org/2000/svg">
<g filter="url(#filter0_d_34_1592)">
<path d="M127 75.5L116.275 94.25L105.25 112.829L83.5 113L61.75 112.829L50.7253 94.25L40 75.5L50.7253 56.75L61.75 38.1713L83.5 38L105.25 38.1713L116.275 56.75L127 75.5Z" fill="white"/>
<path d="M98.6245 83.0802C99.6682 80.9258 100.223 78.5674 100.249 76.1737C100.275 73.7799 99.7719 71.4099 98.7753 69.2333C97.7787 67.0567 96.3135 65.1272 94.4843 63.5829C92.6552 62.0385 90.5074 60.9175 88.1945 60.2999C88.1663 60.2912 88.1379 60.2836 88.1092 60.2768C85.5718 59.6142 82.9117 59.5761 80.3564 60.1657C77.8011 60.7554 75.4267 61.9552 73.4362 63.6627C73.36 63.7155 73.29 63.7767 73.2275 63.8452C70.7584 66.0305 69.0128 68.9156 68.2229 72.117C67.433 75.3183 67.6362 78.6843 68.8055 81.7674C69.9747 84.8504 72.0547 87.5046 74.7688 89.3771C77.4829 91.2496 80.7026 92.2516 84 92.25C84.115 92.25 84.2295 92.248 84.3439 92.2457C84.3468 92.2457 84.3496 92.246 84.3523 92.246C84.3578 92.246 84.3631 92.2454 84.3685 92.2453C87.3197 92.1757 90.1963 91.3044 92.6902 89.7249C95.1841 88.1454 97.2013 85.9172 98.5256 83.2789L98.5279 83.2756C98.5657 83.2134 98.5981 83.148 98.6245 83.0802ZM97.75 76C97.7514 77.6381 97.4587 79.2632 96.8857 80.7979L89.6357 76.3388C89.3385 76.1555 89.0061 76.037 88.6601 75.9909L85.0947 75.5102C84.6364 75.4508 84.1705 75.5187 83.7483 75.7065C83.326 75.8943 82.9635 76.1948 82.7007 76.575H81.3659L80.7714 75.3468C80.6058 75.0046 80.3643 74.7047 80.0653 74.4698C79.7664 74.235 79.4178 74.0714 79.0461 73.9916L78.0202 73.7712L78.4136 72.8373C78.5091 72.6106 78.6693 72.4172 78.8742 72.2811C79.0791 72.1451 79.3196 72.0725 79.5656 72.0725H82.071C82.4937 72.0723 82.9094 71.9651 83.2795 71.761L85.1925 70.7046C85.3608 70.6116 85.5179 70.4995 85.6606 70.3706L89.8654 66.5678C90.2279 66.2425 90.4867 65.8178 90.6099 65.3466C90.7331 64.8754 90.7151 64.3784 90.5582 63.9173C92.7325 65.0987 94.5481 66.8444 95.8137 68.9708C97.0794 71.0972 97.7483 73.5255 97.75 76ZM70.25 76C70.2476 73.8465 70.7541 71.7229 71.7283 69.8023L73.3569 74.1493C73.5031 74.5422 73.7462 74.8918 74.0636 75.1658C74.3811 75.4397 74.7625 75.6289 75.1726 75.716L76.034 75.9012L76.0411 75.9027L77.9245 76.3076C78.1103 76.3475 78.2845 76.4293 78.4339 76.5467C78.5834 76.6641 78.7041 76.814 78.7869 76.985L79.1157 77.6643C79.3204 78.0871 79.64 78.4436 80.038 78.6931C80.436 78.9426 80.8962 79.075 81.366 79.075H81.5392L80.3368 81.773C80.1374 82.2197 80.0735 82.7151 80.1532 83.1977C80.2328 83.6803 80.4524 84.1289 80.7847 84.4879L83.2925 87.2004C83.4257 87.3444 83.523 87.5178 83.5768 87.7064C83.6306 87.8951 83.6392 88.0937 83.6019 88.2863L83.3221 89.7331C79.7984 89.5551 76.4777 88.031 74.0452 85.4755C71.6127 82.92 70.2542 79.5281 70.25 76Z" fill="#7030A0"/>
</g>
<defs>
<filter id="filter0_d_34_1592" x="0" y="0" width="167" height="155" filterUnits="userSpaceOnUse" color-interpolation-filters="sRGB">
<feFlood flood-opacity="0" result="BackgroundImageFix"/>
<feColorMatrix in="SourceAlpha" type="matrix" values="0 0 0 0 0 0 0 0 0 0 0 0 0 0 0 0 0 0 127 0" result="hardAlpha"/>
<feOffset dy="2"/>
<feGaussianBlur stdDeviation="20"/>
<feComposite in2="hardAlpha" operator="out"/>
<feColorMatrix type="matrix" values="0 0 0 0 1 0 0 0 0 0.752941 0 0 0 0 0 0 0 0 0.8 0"/>
<feBlend mode="normal" in2="BackgroundImageFix" result="effect1_dropShadow_34_1592"/>
<feBlend mode="normal" in="SourceGraphic" in2="effect1_dropShadow_34_1592" result="shape"/>
</filter>
</defs>
</svg>
