<svg width="20" height="20" viewBox="0 0 20 20" fill="none" xmlns="http://www.w3.org/2000/svg">
<g id="Frame">
<path id="Vector" d="M17.619 4.14802H15.782V2.97802C15.782 2.54702 15.432 2.19702 15.001 2.19702H5.13295C4.70195 2.19702 4.35195 2.54702 4.35195 2.97802V4.14802H2.45495C2.02395 4.14802 1.67395 4.49802 1.67395 4.92902V7.03702C1.67395 8.66902 2.92295 10.014 4.51495 10.167C5.06695 12.425 6.96395 14.161 9.30695 14.473V16.167H6.28595C5.85495 16.167 5.50495 16.517 5.50495 16.948C5.50495 17.379 5.85495 17.729 6.28595 17.729H13.89C14.321 17.729 14.671 17.379 14.671 16.948C14.671 16.517 14.321 16.167 13.89 16.167H10.869V14.467C13.194 14.139 15.073 12.407 15.619 10.159C17.182 9.97802 18.399 8.64702 18.399 7.03602V4.92902C18.4 4.49802 18.05 4.14802 17.619 4.14802ZM4.35195 8.54902C3.70695 8.34902 3.23695 7.74702 3.23695 7.03602V5.71002H4.35195V8.54902ZM11.678 10.22L10.037 9.35702L8.39595 10.22L8.70895 8.39302L7.38295 7.10002L9.21695 6.83302L10.037 5.17102L10.857 6.83302L12.692 7.10002L11.365 8.39402L11.678 10.22ZM16.838 7.03702C16.838 7.72502 16.396 8.31002 15.782 8.52802V5.71002H16.838V7.03702Z" fill="#CB781D"/>
<path id="Vector_2" d="M15.7819 2.97802C15.7819 2.54702 15.432 2.19702 15.0009 2.19702H5.13295C4.70195 2.19702 4.35195 2.54702 4.35195 2.97802V4.14802H2.45495C2.02395 4.14802 1.67395 4.49802 1.67395 4.92902V7.03702C1.67395 8.66902 2.92295 10.014 4.51495 10.167C4.81695 11.4 5.51995 12.477 6.47695 13.252C6.64595 13.261 6.81595 13.265 6.98695 13.265C10.856 13.265 14.1989 11.016 15.7809 7.75502V5.71002H16.5009C16.6204 5.19652 16.6976 4.67411 16.732 4.14802H15.7809V2.97802H15.7819ZM4.35195 8.54902C3.70695 8.34902 3.23695 7.74702 3.23695 7.03702V5.71002H4.35195V8.54902ZM11.6779 10.22L10.037 9.35702L8.39595 10.22L8.70895 8.39302L7.38295 7.10002L9.21695 6.83302L10.037 5.17102L10.857 6.83302L12.6919 7.10002L11.365 8.39402L11.6779 10.22Z" fill="#E79030"/>
<path id="Vector_3" d="M8.70995 8.39402L7.38295 7.10002L9.21695 6.83302L10.037 5.17102L10.857 6.83302L11.2629 6.89202C12.5432 5.59815 13.4359 3.97183 13.8399 2.19702H5.13295C4.70195 2.19702 4.35195 2.54702 4.35195 2.97802V4.14802H2.45495C2.02395 4.14802 1.67395 4.49802 1.67395 4.92902V7.03702C1.67395 8.18002 2.28795 9.18002 3.20195 9.73002C5.06892 9.94689 6.95874 9.61831 8.64295 8.78402L8.70995 8.39402ZM4.35195 8.54902C3.70695 8.34902 3.23695 7.74702 3.23695 7.03702V5.71002H4.35195V8.54902Z" fill="#F69E3D"/>
<path id="Vector_4" d="M9.83995 2.19702H5.13295C4.70195 2.19702 4.35195 2.54702 4.35195 2.97802V4.14802H2.45495C2.02395 4.14802 1.67395 4.49802 1.67395 4.92902V6.33302C1.73495 6.33402 1.79595 6.33802 1.85695 6.33802C2.32495 6.33802 2.78495 6.30302 3.23495 6.23902V5.71002H4.34995V6.01502C6.60295 5.42302 8.53395 4.04702 9.83995 2.19702Z" fill="#FFB15C"/>
</g>
</svg>
