<svg width="20" height="20" viewBox="0 0 20 20" fill="none" xmlns="http://www.w3.org/2000/svg">
<g id="Handbag">
<path id="Vector (Stroke)" fill-rule="evenodd" clip-rule="evenodd" d="M2.85076 5.31859C3.07998 5.11343 3.37679 5 3.68441 5H16.3156C16.6232 5 16.92 5.11343 17.1493 5.31859C17.3785 5.52375 17.524 5.80622 17.558 6.11196L18.6691 16.112C18.6885 16.2867 18.6708 16.4635 18.6173 16.631C18.5637 16.7984 18.4754 16.9527 18.3581 17.0837C18.2409 17.2146 18.0973 17.3194 17.9368 17.3912C17.7763 17.4629 17.6025 17.5 17.4267 17.5H2.5733C2.39751 17.5 2.22368 17.4629 2.06319 17.3912C1.90269 17.3194 1.75914 17.2146 1.64189 17.0837C1.52465 16.9527 1.43635 16.7984 1.38277 16.631C1.32919 16.4635 1.31153 16.2867 1.33095 16.112L2.44206 6.11196C2.47603 5.80622 2.62155 5.52375 2.85076 5.31859ZM16.3156 6.25L3.68441 6.25L2.5733 16.25H17.4267L16.3156 6.25Z" fill="black"/>
<path id="Vector (Stroke)_2" fill-rule="evenodd" clip-rule="evenodd" d="M10 3.125C9.33696 3.125 8.70107 3.38839 8.23223 3.85723C7.76339 4.32607 7.5 4.96196 7.5 5.625V8.125C7.5 8.47018 7.22018 8.75 6.875 8.75C6.52982 8.75 6.25 8.47018 6.25 8.125V5.625C6.25 4.63044 6.64509 3.67661 7.34835 2.97335C8.05161 2.27009 9.00544 1.875 10 1.875C10.9946 1.875 11.9484 2.27009 12.6517 2.97335C13.3549 3.67661 13.75 4.63044 13.75 5.625V8.125C13.75 8.47018 13.4702 8.75 13.125 8.75C12.7798 8.75 12.5 8.47018 12.5 8.125V5.625C12.5 4.96196 12.2366 4.32607 11.7678 3.85723C11.2989 3.38839 10.663 3.125 10 3.125Z" fill="black"/>
</g>
</svg>
