<svg width="20" height="20" viewBox="0 0 20 20" fill="none" xmlns="http://www.w3.org/2000/svg">
<g id="Frame 5">
<g id="Group 1">
<path id="Vector" d="M8.77286 17.0944C9.33549 16.5599 10.0373 15.8384 10.7551 14.9611C12.3301 13.036 14.0228 10.3116 14.4354 7.1348C14.544 7.08194 14.6784 7.01642 14.8317 6.94136C15.248 6.73756 15.8045 6.46303 16.364 6.1808C16.9222 5.8992 17.4886 5.60735 17.9227 5.36958C18.1033 5.27062 18.267 5.17776 18.4 5.09692V17.0944H8.77286Z" stroke="black" stroke-width="1.2"/>
<path id="Vector_2" d="M8.04029 13.2292L8.06888 13.2619V13.3539L7.58618 13.6145V13.1066L7.73186 13.0096L7.7326 13.0091L7.84899 12.9314L7.87252 13.0372L8.04029 13.2292Z" stroke="black" stroke-width="2"/>
<path id="Vector_3" d="M8.80401 5.11906L8.80465 5.11973C8.80493 5.12002 8.80476 5.11984 8.80414 5.11919L8.89293 5.21398L9.00577 5.28381L9.21275 5.41191L9.58642 5.64317L8.95141 6.30702L8.89805 6.36281L7.31723 8.01541M7.31723 8.01541L2.04061 13.2065L2.13536 13.3052L2.25727 13.3052L7.31723 8.01541Z" stroke="black" stroke-width="2"/>
</g>
</g>
</svg>
