<svg width="20" height="20" viewBox="0 0 20 20" fill="none" xmlns="http://www.w3.org/2000/svg">
<g id="Frame 6">
<path id="Vector" d="M16.203 5.16872H16.4913C17.3553 5.16872 18.05 5.89386 18.05 6.77818V16.4403V16.4405H18L16.203 5.16872ZM16.203 5.16872L14.5722 2.69249L14.5721 2.69243C14.0703 1.93281 13.0522 1.71883 12.3025 2.22463C12.3025 2.22463 12.3025 2.22464 12.3025 2.22464L7.93726 5.16828L7.9366 5.16872H16.203ZM14.8228 5.16872H10.026L12.9323 3.21087L12.9324 3.2108C13.1609 3.05608 13.4732 3.12066 13.6279 3.3543L14.8228 5.16872ZM16.9065 14.248V16.436C16.9065 16.6752 16.7186 16.8669 16.4913 16.8669H3.50869C3.28133 16.8669 3.09348 16.6752 3.09348 16.436V6.77369C3.09348 6.53458 3.28133 6.34282 3.50869 6.34282H16.4913C16.7186 6.34282 16.9065 6.53458 16.9065 6.77369V8.96176H12.7565C11.3447 8.96176 10.1978 10.1497 10.1978 11.6049C10.1978 13.06 11.3447 14.248 12.7565 14.248H16.9065ZM16.9065 10.1403V13.0694H12.7565C11.977 13.0694 11.3413 12.4147 11.3413 11.6049C11.3413 10.795 11.977 10.1403 12.7565 10.1403H16.9065ZM12.2587 11.6004C12.2587 11.7919 12.3323 11.9759 12.4638 12.1118C12.5953 12.2478 12.7741 12.3245 12.9609 12.3245C13.1476 12.3245 13.3264 12.2478 13.458 12.1118C13.5894 11.9759 13.663 11.7919 13.663 11.6004C13.663 11.4088 13.5894 11.2249 13.458 11.0889C13.3264 10.953 13.1476 10.8763 12.9609 10.8763C12.7741 10.8763 12.5953 10.953 12.4638 11.0889C12.3323 11.2249 12.2587 11.4088 12.2587 11.6004Z" fill="#040000" stroke="black" stroke-width="0.1"/>
</g>
</svg>
