<svg width="32" height="26" viewBox="0 0 32 26" fill="none" xmlns="http://www.w3.org/2000/svg">
<path d="M20.5714 14.1818C20.5714 16.7818 18.5143 18.9091 16 18.9091C13.4857 18.9091 11.4286 16.7818 11.4286 14.1818C11.4286 11.5818 13.4857 9.45455 16 9.45455C18.5143 9.45455 20.5714 11.5818 20.5714 14.1818ZM32 5.90909V23.6364C32 24.9364 30.9714 26 29.7143 26H2.28571C1.02857 26 0 24.9364 0 23.6364V5.90909C0 4.60909 1.02857 3.54545 2.28571 3.54545H8.25714L11.1429 0H20.2857L23.1714 3.54545H29.7143C30.9714 3.54545 32 4.60909 32 5.90909ZM22.8571 14.1818C22.8571 10.2523 19.8 7.09091 16 7.09091C12.2 7.09091 9.14286 10.2523 9.14286 14.1818C9.14286 18.1114 12.2 21.2727 16 21.2727C19.8 21.2727 22.8571 18.1114 22.8571 14.1818Z" fill="white" fill-opacity="0.9"/>
</svg>
