<svg width="112" height="87" viewBox="0 0 112 87" fill="none" xmlns="http://www.w3.org/2000/svg">
<g id="Frame">
<path id="Vector" d="M65.8835 49.5248H96.209C99.1127 49.5248 101.372 46.9948 101.045 44.1083L99.291 28.7328C98.4975 21.7695 92.6152 16.5255 85.606 16.5255H65.8777C63.1925 16.5255 61.0132 18.7048 61.0132 21.39V44.6603C61.019 47.3455 63.1982 49.5248 65.8835 49.5248ZM54.3432 44.6545V21.3843C54.3432 18.699 52.164 16.5198 49.4787 16.5198H29.7505C22.747 16.5198 16.8647 21.7695 16.0655 28.727L14.3117 44.1025C13.984 46.989 16.238 49.519 19.1475 49.519H49.4787C52.164 49.5248 54.3432 47.3455 54.3432 44.6545ZM49.473 56.2005H17.273C16.0783 56.2011 14.9256 56.6408 14.0339 57.436C13.1423 58.2311 12.5741 59.3262 12.4372 60.513L9.89574 82.7598C9.6772 84.6874 9.86794 86.6395 10.4555 88.4884C11.0431 90.3373 12.0142 92.0414 13.3055 93.4893C15.916 96.416 19.6592 98.0893 23.5807 98.0893H49.473C52.1582 98.0893 54.3375 95.91 54.3375 93.2248V61.065C54.3432 58.3798 52.164 56.2005 49.473 56.2005ZM98.0835 56.2005H65.8835C63.1982 56.2005 61.019 58.3798 61.019 61.065V93.2248C61.019 95.91 63.1982 98.0893 65.8835 98.0893H91.7757C93.716 98.0882 95.6341 97.6775 97.4047 96.8839C99.1752 96.0903 100.758 94.9318 102.05 93.4841C103.342 92.0365 104.313 90.3324 104.901 88.4833C105.489 86.6342 105.68 84.6819 105.461 82.754L102.919 60.5073C102.643 58.0578 100.562 56.2005 98.0835 56.2005Z" fill="url(#paint0_linear_34_2813)"/>
</g>
<defs>
<linearGradient id="paint0_linear_34_2813" x1="57.6784" y1="16.5198" x2="57.6784" y2="98.0893" gradientUnits="userSpaceOnUse">
<stop stop-color="#7030A0"/>
<stop offset="1" stop-color="#7030A0" stop-opacity="0"/>
</linearGradient>
</defs>
</svg>
