<svg width="105" height="82" viewBox="0 0 105 82" fill="none" xmlns="http://www.w3.org/2000/svg">
<g id="Database">
<path id="Vector" d="M53 9.9375C30.7102 9.9375 13.25 20.1227 13.25 33.125V72.875C13.25 85.8773 30.7102 96.0625 53 96.0625C75.2898 96.0625 92.75 85.8773 92.75 72.875V33.125C92.75 20.1227 75.2898 9.9375 53 9.9375ZM86.125 53C86.125 56.9821 82.8643 61.0447 77.179 64.1457C70.775 67.6388 62.188 69.5625 53 69.5625C43.812 69.5625 35.225 67.6388 28.821 64.1457C23.1357 61.0447 19.875 56.9821 19.875 53V46.1085C26.9389 52.3047 39.0188 56.3125 53 56.3125C66.9812 56.3125 79.0611 52.3047 86.125 46.1085V53ZM77.179 84.0207C70.775 87.5138 62.1882 89.4375 53 89.4375C43.8118 89.4375 35.225 87.5138 28.821 84.0207C23.1357 80.9197 19.875 76.8571 19.875 72.875V65.9835C26.9389 72.1797 39.0188 76.1875 53 76.1875C66.9812 76.1875 79.0611 72.1797 86.125 65.9835V72.875C86.125 76.8571 82.8643 80.9197 77.179 84.0207Z" fill="url(#paint0_linear_34_2794)"/>
</g>
<defs>
<linearGradient id="paint0_linear_34_2794" x1="53" y1="9.9375" x2="53" y2="96.0625" gradientUnits="userSpaceOnUse">
<stop stop-color="#7030A0"/>
<stop offset="1" stop-color="#7030A0" stop-opacity="0"/>
</linearGradient>
</defs>
</svg>
