<svg width="101" height="84" viewBox="0 0 101 84" fill="none" xmlns="http://www.w3.org/2000/svg">
<g id="Frame">
<path id="Vector" d="M93.6815 50.7728C94.5036 52.0677 94.9401 53.5699 94.94 55.1037V82.8201C94.94 86.0345 93.6631 89.1173 91.3901 91.3902C89.1172 93.6632 86.0344 94.9401 82.82 94.9401H18.18C14.9656 94.9401 11.8828 93.6632 9.60986 91.3902C7.33692 89.1173 6.06 86.0345 6.06 82.8201V55.134C6.06002 53.6856 6.44936 52.2638 7.18728 51.0175C7.92521 49.7712 8.98457 48.7462 10.2545 48.0497C11.5244 47.3532 12.9582 47.0108 14.4058 47.0585C15.8534 47.1061 17.2616 47.542 18.483 48.3205L50.4152 68.6801L82.5271 48.2842C83.4229 47.715 84.422 47.3279 85.4674 47.1449C86.5128 46.9619 87.584 46.9867 88.6199 47.2178C89.6557 47.4489 90.6358 47.8818 91.5043 48.4918C92.3728 49.1018 93.1126 49.8769 93.6815 50.7728ZM70.7 10.1001C73.9144 10.1001 76.9972 11.377 79.2701 13.65C81.5431 15.9229 82.82 19.0057 82.82 22.2201V42.4201L50.5667 62.6201L18.18 42.4201V22.2201C18.18 19.0057 19.4569 15.9229 21.7299 13.65C24.0028 11.377 27.0856 10.1001 30.3 10.1001H70.7Z" fill="url(#paint0_linear_34_2803)"/>
<path id="Vector_2" d="M37.37 22.22H63.63C65.65 22.22 66.66 23.23 66.66 25.25C66.66 27.27 65.65 28.28 63.63 28.28H37.37C35.35 28.28 34.34 27.27 34.34 25.25C34.34 23.23 35.35 22.22 37.37 22.22Z" fill="white"/>
<path id="Vector_3" d="M37.37 36.3601H47.47C49.49 36.3601 50.5 37.3701 50.5 39.3901C50.5 41.4101 49.49 42.4201 47.47 42.4201H37.37C35.35 42.4201 34.34 41.4101 34.34 39.3901C34.34 37.3701 35.35 36.3601 37.37 36.3601Z" fill="white"/>
</g>
<defs>
<linearGradient id="paint0_linear_34_2803" x1="50.5" y1="10.1001" x2="50.5" y2="94.9401" gradientUnits="userSpaceOnUse">
<stop stop-color="#7030A0"/>
<stop offset="1" stop-color="#7030A0" stop-opacity="0"/>
</linearGradient>
</defs>
</svg>
