<svg width="90" height="75" viewBox="0 0 90 75" fill="none" xmlns="http://www.w3.org/2000/svg">
<g id="Frame" opacity="0.3" clip-path="url(#clip0_34_3224)">
<path id="Vector" d="M65.1458 2.24568C53.9179 -2.24548 41.3427 0.449217 32.3604 8.98241L29.6657 11.6771L27.8692 9.88064C26.971 8.98241 25.6237 8.98241 24.7254 9.88064L9.90462 24.7015C9.00639 25.5997 9.00639 26.947 9.90462 27.8453L11.7011 29.6417L8.55728 32.7855C-5.3653 46.7081 2.26966 65.1218 2.26966 65.1218L24.7254 42.6661L26.5219 44.4625C27.4201 45.3608 28.7675 45.3608 29.6657 44.4625L44.4865 29.6417C45.3847 28.7435 45.3847 27.3961 44.4865 26.4979L42.6901 24.7015L65.1458 2.24568ZM77.7211 88.925L88.9489 77.6971C89.8472 76.7988 90.2963 75.0024 88.9489 74.1042L48.5286 33.6838L33.2586 48.9537L73.679 89.3741C75.0264 90.2723 76.8228 90.2723 77.7211 88.925Z" fill="url(#paint0_linear_34_3224)"/>
</g>
<defs>
<linearGradient id="paint0_linear_34_3224" x1="44.99" y1="0.0974121" x2="44.99" y2="90.0001" gradientUnits="userSpaceOnUse">
<stop stop-color="white"/>
<stop offset="1" stop-color="white" stop-opacity="0"/>
</linearGradient>
<clipPath id="clip0_34_3224">
<rect width="90" height="90" fill="white"/>
</clipPath>
</defs>
</svg>
